<svg xmlns="http://www.w3.org/2000/svg"  viewBox="0 0 48 48" width="240px" height="240px" baseProfile="basic"><path fill="#38b47b" d="M27.429,44.837c-0.182,0-0.36-0.011-0.537-0.034c-0.335-0.043-0.76-0.133-1.085-0.446	c-0.369-0.358-0.392-0.761-0.409-1.085l-0.37-4.588c-0.022-0.275,0.183-0.517,0.457-0.539c0.29-0.022,0.518,0.182,0.539,0.458	l0.373,4.614c0.016,0.292,0.029,0.347,0.105,0.42c0.114,0.11,0.351,0.152,0.519,0.174c1.769,0.221,4.068-1.139,5.736-2.139	l0.147-0.088c5.216-3.122,8.159-6.213,9.843-10.336c2.326-5.698,1.422-13.37-2.25-19.09c-2.177-3.391-6.249-6.201-10.628-7.333	c-3.973-1.026-8.343-0.864-12.638,0.474c-0.991,0.309-1.765,0.617-2.436,0.969c-0.833,0.438-1.688,1.042-2.693,1.901	C9.41,10.469,5.907,14.338,4.508,19.71c-0.869,3.337-0.698,7.415,0.459,10.908c1.116,3.368,3.329,6.757,5.922,9.066	c2.747,2.447,5.959,3.888,9.044,4.056c0.351,0.018,0.709,0.015,0.938-0.141c0.255-0.174,0.37-0.556,0.423-0.845	c0.096-0.526,0.085-1.08,0.074-1.667c-0.018-0.947-0.036-1.926,0.412-2.834c0.298-0.601,0.751-1.066,1.228-1.529	c0.076-0.073,0.152-0.147,0.229-0.22c-0.637-0.877-1.574-1.504-2.564-2.165c-1.178-0.787-2.396-1.601-3.113-2.894	c-0.857-1.548-0.765-3.405-0.689-4.898l0.853-17.113l0.222-0.138c0.821-0.516,1.873-0.091,2.374,0.597	c0.456,0.622,0.563,1.388,0.612,2.122c0.112,1.696,0.009,3.408-0.092,5.064c-0.105,1.745-0.215,3.549-0.063,5.299	c0.031,0.354,0.074,0.723,0.231,1.005c0.126,0.228,0.335,0.385,0.534,0.374c0.393-0.024,0.625-0.679,0.711-1.283	c0.222-1.542,0.18-3.037,0.135-4.619c-0.025-0.937-0.053-1.905-0.026-2.927c0.011-0.411,0-0.825-0.012-1.239	c-0.029-1.132-0.061-2.303,0.336-3.429c0.271-0.772,0.799-1.211,1.411-1.156c0.325,0.033,0.911,0.247,1.179,1.313	c0.601,2.396,0.508,4.886,0.418,7.292c-0.059,1.562-0.118,3.177,0.015,4.736c0.042,0.483,0.185,0.893,0.364,1.042	c0.059,0.048,0.113,0.066,0.2,0.058c0.323-0.032,0.532-0.581,0.612-1.042c0.186-1.072,0.211-2.19,0.22-3.244	c0.017-1.964-0.025-3.961-0.124-5.934c-0.041-0.82-0.087-1.75,0.316-2.577c0.472-0.964,1.776-1.721,2.755-1.257l0.252,0.12	l0.03,0.277c0.641,5.895,0.946,11.896,0.908,17.837c-0.004,0.625-0.008,1.404-0.21,2.146c-0.507,1.86-2.104,3.124-3.513,4.238	l-0.209,0.165c-1.249,0.992-2.462,2.057-3.604,3.165c-0.413,0.4-0.802,0.797-1.028,1.255c-0.341,0.689-0.325,1.506-0.309,2.372	c0.012,0.61,0.023,1.241-0.09,1.864c-0.126,0.695-0.409,1.197-0.844,1.493c-0.475,0.326-1.056,0.343-1.557,0.313	c-3.31-0.18-6.738-1.709-9.655-4.307c-2.717-2.421-5.036-5.972-6.205-9.499c-1.216-3.668-1.394-7.958-0.477-11.474	c1.158-4.452,3.895-8.618,7.911-12.05c1.063-0.908,1.979-1.552,2.879-2.025c0.726-0.381,1.553-0.712,2.604-1.04	c4.472-1.393,9.032-1.561,13.185-0.487c4.613,1.192,8.912,4.166,11.22,7.761c3.899,6.076,4.816,13.929,2.334,20.008	c-2.228,5.455-6.435,8.529-10.255,10.816l-0.146,0.088C31.626,43.517,29.423,44.837,27.429,44.837z M18.691,10.071l-0.824,16.524	c-0.068,1.366-0.153,3.065,0.566,4.363c0.6,1.082,1.666,1.793,2.794,2.548c0.987,0.659,2.005,1.339,2.743,2.308	c0.877-0.806,1.786-1.583,2.717-2.322l0.21-0.166c1.351-1.069,2.747-2.173,3.168-3.716c0.155-0.571,0.171-1.169,0.175-1.891	c0.037-5.785-0.254-11.626-0.864-17.37c-0.424,0.017-0.98,0.425-1.183,0.838c-0.29,0.595-0.253,1.354-0.217,2.088	c0.101,1.992,0.143,4.008,0.126,5.992c-0.01,1.095-0.036,2.26-0.235,3.406c-0.192,1.111-0.738,1.791-1.499,1.866	c-0.348,0.037-0.673-0.064-0.937-0.284c-0.537-0.446-0.683-1.273-0.722-1.726c-0.139-1.621-0.077-3.267-0.018-4.858	c0.091-2.445,0.177-4.753-0.39-7.012c-0.099-0.396-0.241-0.555-0.308-0.562c-0.002,0-0.004,0-0.005,0	c-0.08,0-0.25,0.171-0.363,0.493c-0.335,0.952-0.308,1.981-0.279,3.071c0.012,0.432,0.022,0.863,0.012,1.292	c-0.026,0.995,0.001,1.95,0.026,2.873c0.046,1.626,0.089,3.162-0.145,4.789c-0.187,1.308-0.784,2.087-1.64,2.14	c-0.55,0.037-1.151-0.312-1.471-0.887c-0.252-0.455-0.314-0.963-0.353-1.404c-0.157-1.823-0.046-3.665,0.062-5.445	c0.099-1.625,0.2-3.306,0.092-4.938c-0.044-0.675-0.133-1.205-0.421-1.598C19.326,10.229,18.973,10.042,18.691,10.071z"/></svg>